# Blender v2.82 (sub 7) OBJ File: ''
# www.blender.org
mtllib index-testing.mtl
o Cube
v -3.000000 2.000000 -1.000000
v -3.000000 0.000000 -1.000000
v -3.000000 2.000000 1.000000
v -3.000000 0.000000 1.000000
v -5.000000 2.000000 -1.000000
v -5.000000 0.000000 -1.000000
v -5.000000 2.000000 1.000000
v -5.000000 0.000000 1.000000
v 5.000000 2.000000 -1.000000
v 5.000000 0.000000 -1.000000
v 5.000000 2.000000 1.000000
v 5.000000 0.000000 1.000000
v 3.000000 2.000000 -1.000000
v 3.000000 0.000000 -1.000000
v 3.000000 2.000000 1.000000
v 3.000000 0.000000 1.000000
vt 0.875000 0.500000
vt 0.625000 0.750000
vt 0.625000 0.500000
vt 0.375000 1.000000
vt 0.375000 0.750000
vt 0.625000 0.000000
vt 0.375000 0.250000
vt 0.375000 0.000000
vt 0.375000 0.500000
vt 0.125000 0.750000
vt 0.125000 0.500000
vt 0.625000 0.250000
vt 0.875000 0.750000
vt 0.625000 1.000000
vt 0.875000 0.500000
vt 0.625000 0.750000
vt 0.625000 0.500000
vt 0.375000 1.000000
vt 0.375000 0.750000
vt 0.625000 0.000000
vt 0.375000 0.250000
vt 0.375000 0.000000
vt 0.375000 0.500000
vt 0.125000 0.750000
vt 0.125000 0.500000
vt 0.625000 0.250000
vt 0.875000 0.750000
vt 0.625000 1.000000
vn 0.0000 1.0000 0.0000
vn 0.0000 0.0000 1.0000
vn -1.0000 0.0000 0.0000
vn 0.0000 -1.0000 0.0000
vn 1.0000 0.0000 0.0000
vn 0.0000 0.0000 -1.0000
usemtl Material
s off
f 5/1/1 3/2/1 1/3/1
f 3/2/2 8/4/2 4/5/2
f 7/6/3 6/7/3 8/8/3
f 2/9/4 8/10/4 6/11/4
f 1/3/5 4/5/5 2/9/5
f 5/12/6 2/9/6 6/7/6
f 5/1/1 7/13/1 3/2/1
f 3/2/2 7/14/2 8/4/2
f 7/6/3 5/12/3 6/7/3
f 2/9/4 4/5/4 8/10/4
f 1/3/5 3/2/5 4/5/5
f 5/12/6 1/3/6 2/9/6
f 13/15/1 11/16/1 9/17/1
f 11/16/2 16/18/2 12/19/2
f 15/20/3 14/21/3 16/22/3
f 10/23/4 16/24/4 14/25/4
f 9/17/5 12/19/5 10/23/5
f 13/26/6 10/23/6 14/21/6
f 13/15/1 15/27/1 11/16/1
f 11/16/2 15/28/2 16/18/2
f 15/20/3 13/26/3 14/21/3
f 10/23/4 12/19/4 16/24/4
f 9/17/5 11/16/5 12/19/5
f 13/26/6 9/17/6 10/23/6
o Cube.001
v 1.414214 -1.000000 0.000000
v 0.000000 1.000000 1.414214
v 0.000000 1.000000 -1.414214
v -1.414214 -1.000000 0.000000
v -1.414213 -1.000000 -2.828427
v -2.828427 1.000000 -1.414213
v -2.828427 1.000000 -4.242640
v -4.242640 -1.000000 -2.828427
v -4.242641 -1.000000 -5.656854
v -5.656854 1.000000 -4.242641
v -5.656854 1.000000 -7.071067
v -7.071067 -1.000000 -5.656854
v -7.071068 -1.000000 -8.485281
v -8.485281 1.000000 -7.071068
v -8.485281 1.000000 -9.899494
v -9.899494 -1.000000 -8.485281
vt 0.625000 0.250000
vt 0.375000 0.500000
vt 0.375000 0.000000
vt 0.875000 0.500000
vt 0.625000 0.750000
vt 0.125000 0.750000
vt 0.375000 1.000000
vt 0.625000 0.250000
vt 0.375000 0.500000
vt 0.375000 0.000000
vt 0.875000 0.500000
vt 0.625000 0.750000
vt 0.125000 0.750000
vt 0.375000 1.000000
vt 0.625000 0.250000
vt 0.375000 0.500000
vt 0.375000 0.000000
vt 0.875000 0.500000
vt 0.625000 0.750000
vt 0.125000 0.750000
vt 0.375000 1.000000
vt 0.625000 0.250000
vt 0.375000 0.500000
vt 0.375000 0.000000
vt 0.875000 0.500000
vt 0.625000 0.750000
vt 0.125000 0.750000
vt 0.375000 1.000000
vn 0.0000 -0.5774 0.8165
vn -0.8165 0.5774 0.0000
vn 0.0000 -0.5774 -0.8165
vn 0.8165 0.5774 0.0000
usemtl None
s off
f 18/29/7 20/30/7 17/31/7
f 18/32/8 19/33/8 20/30/8
f 19/33/9 17/34/9 20/30/9
f 19/33/10 18/29/10 17/35/10
f 22/36/7 24/37/7 21/38/7
f 22/39/8 23/40/8 24/37/8
f 23/40/9 21/41/9 24/37/9
f 23/40/10 22/36/10 21/42/10
f 26/43/7 28/44/7 25/45/7
f 26/46/8 27/47/8 28/44/8
f 27/47/9 25/48/9 28/44/9
f 27/47/10 26/43/10 25/49/10
f 30/50/7 32/51/7 29/52/7
f 30/53/8 31/54/8 32/51/8
f 31/54/9 29/55/9 32/51/9
f 31/54/10 30/50/10 29/56/10
